<svg width="189" height="44" viewBox="0 0 189 44" fill="none" xmlns="http://www.w3.org/2000/svg">
<path d="M22.9998 0C10.3177 0 0 10.3954 0 23.1731C0 31.7952 4.70628 39.6527 12.2821 43.6793L12.8856 44H33.1142L33.7178 43.6793C41.2939 39.6525 46 31.795 46 23.1731C46 10.3954 35.6822 0 22.9998 0ZM31.7235 38.4473H27.463L26.5095 31.5718C27.1411 31.4578 27.7813 31.3151 28.4353 31.1389C28.7703 31.0485 29.0476 30.8113 29.1905 30.4928C31.3246 25.7333 32.1725 21.2923 31.8588 16.5169C31.8262 16.0242 31.4895 15.6056 31.0179 15.4718C28.2741 14.6946 25.6516 14.3165 23 14.3165C20.3486 14.3165 17.7261 14.6945 14.9825 15.4718C14.5107 15.6056 14.174 16.024 14.1414 16.5169C13.8277 21.2923 14.6756 25.7333 16.8097 30.4928C16.9526 30.8117 17.23 31.0488 17.5653 31.1389C18.2192 31.3151 18.8592 31.4577 19.4905 31.5715L18.537 38.4472H14.2768C10.4978 36.2544 7.73131 32.7767 6.40009 28.7268C8.70798 28.3943 11.0174 28.1312 13.3277 27.9373C12.4465 25.2819 11.9456 22.6725 11.8058 20.0038C9.51343 20.5338 7.34211 21.3496 5.5218 22.6024C5.82193 13.1497 13.5465 5.55271 23.0002 5.55271C32.4548 5.55271 40.1802 13.1512 40.479 22.6052C40.2983 22.4804 40.1068 22.3584 39.9033 22.2403C38.165 21.2317 36.2197 20.5364 34.1921 20.0573C34.0483 22.7063 33.5487 25.298 32.6738 27.9349C34.9841 28.1282 37.294 28.3905 39.6021 28.7224C38.2709 32.7745 35.5038 36.2539 31.7235 38.4473Z" fill="#3E4095"/>
<path d="M79.7461 27.2852L84.082 13.9375H87.3398L81.1992 31H78.3281L72.2109 13.9375H75.457L79.7461 27.2852ZM92.6719 24.8945H86.5195V22.5977H92.6719V24.8945ZM98.2617 24.6602V31H95.2969V13.9375H101.824C103.73 13.9375 105.242 14.4336 106.359 15.4258C107.484 16.418 108.047 17.7305 108.047 19.3633C108.047 21.0352 107.496 22.3359 106.395 23.2656C105.301 24.1953 103.766 24.6602 101.789 24.6602H98.2617ZM98.2617 22.2812H101.824C102.879 22.2812 103.684 22.0352 104.238 21.543C104.793 21.043 105.07 20.3242 105.07 19.3867C105.07 18.4648 104.789 17.7305 104.227 17.1836C103.664 16.6289 102.891 16.3438 101.906 16.3281H98.2617V22.2812ZM117.809 31C117.684 30.7578 117.574 30.3633 117.48 29.8164C116.574 30.7617 115.465 31.2344 114.152 31.2344C112.879 31.2344 111.84 30.8711 111.035 30.1445C110.23 29.418 109.828 28.5195 109.828 27.4492C109.828 26.0977 110.328 25.0625 111.328 24.3438C112.336 23.6172 113.773 23.2539 115.641 23.2539H117.387V22.4219C117.387 21.7656 117.203 21.2422 116.836 20.8516C116.469 20.4531 115.91 20.2539 115.16 20.2539C114.512 20.2539 113.98 20.418 113.566 20.7461C113.152 21.0664 112.945 21.4766 112.945 21.9766H110.098C110.098 21.2812 110.328 20.6328 110.789 20.0312C111.25 19.4219 111.875 18.9453 112.664 18.6016C113.461 18.2578 114.348 18.0859 115.324 18.0859C116.809 18.0859 117.992 18.4609 118.875 19.2109C119.758 19.9531 120.211 21 120.234 22.3516V28.0703C120.234 29.2109 120.395 30.1211 120.715 30.8008V31H117.809ZM114.68 28.9492C115.242 28.9492 115.77 28.8125 116.262 28.5391C116.762 28.2656 117.137 27.8984 117.387 27.4375V25.0469H115.852C114.797 25.0469 114.004 25.2305 113.473 25.5977C112.941 25.9648 112.676 26.4844 112.676 27.1562C112.676 27.7031 112.855 28.1406 113.215 28.4688C113.582 28.7891 114.07 28.9492 114.68 28.9492ZM129.855 20.9219C129.48 20.8594 129.094 20.8281 128.695 20.8281C127.391 20.8281 126.512 21.3281 126.059 22.3281V31H123.211V18.3203H125.93L126 19.7383C126.688 18.6367 127.641 18.0859 128.859 18.0859C129.266 18.0859 129.602 18.1406 129.867 18.25L129.855 20.9219ZM135.773 25.5625L134.508 26.8633V31H131.66V13H134.508V23.3828L135.398 22.2695L138.902 18.3203H142.324L137.613 23.6055L142.828 31H139.535L135.773 25.5625ZM147.223 31H144.375V18.3203H147.223V31ZM144.199 15.0273C144.199 14.5898 144.336 14.2266 144.609 13.9375C144.891 13.6484 145.289 13.5039 145.805 13.5039C146.32 13.5039 146.719 13.6484 147 13.9375C147.281 14.2266 147.422 14.5898 147.422 15.0273C147.422 15.457 147.281 15.8164 147 16.1055C146.719 16.3867 146.32 16.5273 145.805 16.5273C145.289 16.5273 144.891 16.3867 144.609 16.1055C144.336 15.8164 144.199 15.457 144.199 15.0273ZM152.977 18.3203L153.059 19.7852C153.996 18.6523 155.227 18.0859 156.75 18.0859C159.391 18.0859 160.734 19.5977 160.781 22.6211V31H157.934V22.7852C157.934 21.9805 157.758 21.3867 157.406 21.0039C157.062 20.6133 156.496 20.418 155.707 20.418C154.559 20.418 153.703 20.9375 153.141 21.9766V31H150.293V18.3203H152.977ZM163.195 24.5664C163.195 22.5977 163.656 21.0273 164.578 19.8555C165.508 18.6758 166.738 18.0859 168.27 18.0859C169.715 18.0859 170.852 18.5898 171.68 19.5977L171.809 18.3203H174.375V30.6133C174.375 32.2773 173.855 33.5898 172.816 34.5508C171.785 35.5117 170.391 35.9922 168.633 35.9922C167.703 35.9922 166.793 35.7969 165.902 35.4062C165.02 35.0234 164.348 34.5195 163.887 33.8945L165.234 32.1836C166.109 33.2227 167.188 33.7422 168.469 33.7422C169.414 33.7422 170.16 33.4844 170.707 32.9688C171.254 32.4609 171.527 31.7109 171.527 30.7188V29.8633C170.707 30.7773 169.613 31.2344 168.246 31.2344C166.762 31.2344 165.547 30.6445 164.602 29.4648C163.664 28.2852 163.195 26.6523 163.195 24.5664ZM166.031 24.8125C166.031 26.0859 166.289 27.0898 166.805 27.8242C167.328 28.5508 168.051 28.9141 168.973 28.9141C170.121 28.9141 170.973 28.4219 171.527 27.4375V21.8594C170.988 20.8984 170.145 20.418 168.996 20.418C168.059 20.418 167.328 20.7891 166.805 21.5312C166.289 22.2734 166.031 23.3672 166.031 24.8125Z" fill="#3E4095"/>
</svg>
