<svg width="170" height="87" viewBox="0 0 170 87" fill="none" xmlns="http://www.w3.org/2000/svg">
<g opacity="0.2" clip-path="url(#clip0)">
<path d="M136.227 82.0345C130.99 82.0345 125.744 82.0744 120.507 82.0345C119.154 82.0345 118.215 82.3458 117.57 83.6311C116.853 84.9809 115.682 86.0328 114.267 86.6008C113.733 86.8323 113.144 87.3033 112.579 86.9122C112.014 86.521 112.356 85.8025 112.476 85.2437C112.701 84.0586 112.988 82.8862 113.335 81.7311C113.829 80.1984 113.216 79.7753 111.743 79.8072C107.167 79.879 102.574 79.7513 98.0052 79.9748C91.0804 80.3181 84.1477 80.2143 77.2228 80.2702C76.199 80.1692 75.1726 80.435 74.3256 81.0206C73.7026 81.5064 72.9566 81.8079 72.1718 81.8912C71.387 81.9744 70.5947 81.836 69.8841 81.4916C64.1851 79.2244 58.1438 79.895 52.2299 79.4719C51.8683 79.4613 51.5083 79.5238 51.1713 79.6555C44.9867 81.9387 38.4997 81.8828 32.0683 81.9387C27.4238 81.9691 22.7942 81.4085 18.2904 80.2702C10.1398 78.2265 4.69545 73.2371 2.02105 65.2859C0.429138 60.6318 -0.796632 55.8978 0.57241 50.9163C0.645394 50.3816 0.604705 49.8375 0.453017 49.3197C-0.22791 45.5048 -0.22791 41.599 0.453017 37.7841C0.592361 37.1357 0.608563 36.4667 0.500774 35.8122C-2.09404 22.4565 6.07246 9.53982 19.1978 6.68186C29.6912 4.2476 40.627 4.50293 50.9961 7.42429C51.7555 7.62959 52.5439 7.70515 53.3283 7.64782C56.5121 7.48816 59.6959 7.37639 62.8797 7.15287C65.0505 7.14151 67.1979 6.70208 69.1996 5.8596C71.0462 4.96549 72.9167 4.87768 74.628 6.29867C75.2779 6.75102 76.0724 6.94454 76.8567 6.84152C88.3105 6.67388 99.7484 7.28858 111.202 7.29656C113.63 7.29656 113.701 7.20875 113.12 4.82978C112.834 3.65626 112.531 2.49073 112.277 1.30923C112.022 0.127724 112.531 -0.151684 113.566 0.239489C115.143 0.718283 116.48 1.77969 117.307 3.20921C118.103 4.74196 119.225 5.08524 120.833 5.04532C127.456 4.88566 134.094 5.04532 140.732 4.71003C155.25 3.91172 166.203 14.4973 168.59 27.2783C170.927 39.7327 170.327 52.5625 166.839 64.7431C163.759 75.64 154.852 82.0984 143.271 82.3059C140.883 82.3618 138.567 82.3059 136.219 82.3059L136.227 82.0345ZM142.165 43.5798C142.165 41.1051 142.085 38.6383 141.846 36.1715C140.915 26.3922 136.521 18.4969 129.135 12.1742C128.814 11.8548 128.423 11.616 127.993 11.4773C127.563 11.3385 127.106 11.3038 126.66 11.3759C119.353 12.5335 112.046 13.707 104.723 14.7448C103.083 14.9763 102.916 15.5431 103.362 16.9402C104.803 21.4905 106.132 26.1207 106.403 30.8867C107.199 44.1626 107.676 57.4545 103.282 70.3312C102.845 71.6085 103.282 71.9279 104.532 72.1354C111.919 73.2211 119.281 74.3787 126.652 75.5442C127.098 75.619 127.555 75.5855 127.986 75.4467C128.417 75.3078 128.808 75.0675 129.127 74.7459C132.529 71.8459 135.412 68.3847 137.652 64.5116C141.321 58.0293 142.244 50.9163 142.165 43.5798ZM13.2201 42.1987C13.2183 46.2381 13.4842 50.2732 14.0161 54.2772C14.5159 58.8668 16.2094 63.244 18.9271 66.9704C19.1815 67.4093 19.5444 67.7751 19.9808 68.0324C20.4172 68.2896 20.9123 68.4298 21.4185 68.4392C28.399 68.6548 35.3716 68.9502 42.3441 69.2376C44.8275 69.3254 44.8195 69.2934 44.334 66.8426C43.0048 60.2007 41.8108 53.5827 41.6278 46.7811C41.4286 37.78 42.3429 28.789 44.3499 20.0137C44.8514 17.7784 44.7718 17.6906 42.5829 17.7704C35.483 18.0179 28.391 18.3133 21.2911 18.5687C20.8426 18.5725 20.4025 18.6911 20.0125 18.9133C19.6225 19.1354 19.2955 19.4537 19.0624 19.838C16.9219 22.6965 15.4034 25.9737 14.6051 29.4577C13.7968 33.6603 13.323 37.9208 13.1883 42.1987H13.2201ZM36.1277 11.5915C63.1902 15.2797 90.571 13.6352 117.984 9.42805C111.178 9.20453 104.452 8.89319 97.7426 8.78142C83.3411 8.55789 68.9449 8.667 54.5541 9.10873C48.1466 9.30831 41.9143 10.6335 36.1277 11.5915ZM117.745 77.5081C90.5551 73.3249 63.1822 71.6884 36.0083 75.3686C39.8369 76.0072 44.0315 76.7896 48.2581 77.3883C53.3363 78.1148 58.4781 77.995 63.5881 78.0988C81.6882 78.482 99.7563 78.3942 117.745 77.5081ZM160.607 15.7986C160.208 14.5246 159.555 13.3453 158.688 12.3325C157.82 11.3196 156.756 10.4944 155.561 9.90704C155.051 9.63562 154.43 9.32427 153.873 9.80326C153.634 10.0404 153.476 10.3473 153.422 10.68C153.368 11.0127 153.42 11.3541 153.571 11.6553C154.003 12.9428 154.704 14.1233 155.626 15.1184C156.548 16.1135 157.671 16.9005 158.92 17.4271C160.042 17.9301 160.623 17.3473 160.607 15.7986ZM153.483 76.4703C153.483 76.8934 153.722 77.5001 154.741 77.3724C156.922 77.0929 160.583 73.0136 160.607 70.8262C160.607 69.8762 160.289 69.3014 159.222 69.4531C157.081 69.7086 153.396 73.9476 153.483 76.4383V76.4703ZM12.0421 14.8646C11.9864 14.0662 12.0978 13.4116 11.4531 13.0684C11.1717 12.9477 10.8595 12.919 10.5609 12.9863C10.2623 13.0537 9.99238 13.2137 9.78957 13.4436C8.76678 14.2469 7.92672 15.26 7.32551 16.415C6.72431 17.57 6.3758 18.8405 6.30328 20.1414C6.30328 20.7321 6.23961 21.4027 6.86045 21.738C7.4813 22.0733 8.03847 21.738 8.50012 21.3309C9.50012 20.5534 10.3304 19.5783 10.9397 18.4661C11.5489 17.3539 11.9241 16.1281 12.0421 14.8646ZM12.0421 72.0157C11.9097 70.7492 11.5209 69.5232 10.8995 68.4126C10.2782 67.3021 9.43732 66.3305 8.42848 65.5573C8.24549 65.3512 8.0057 65.204 7.73938 65.1344C7.47306 65.0647 7.19214 65.0758 6.93209 65.1662C6.2794 65.4775 6.28737 66.1401 6.30328 66.7628C6.36828 68.0626 6.70854 69.3336 7.30143 70.4912C7.89432 71.6488 8.72623 72.6665 9.74181 73.4766C9.94466 73.7046 10.2085 73.8694 10.5019 73.9514C10.7954 74.0335 11.1062 74.0294 11.3974 73.9396C12.1297 73.6043 11.9864 72.8459 12.0421 72.0157Z" fill="#1F1F1F"/>
</g>
<defs>
<clipPath id="clip0">
<rect width="170" height="87" fill="white"/>
</clipPath>
</defs>
</svg>
